<svg xmlns="http://www.w3.org/2000/svg" id="Layer_1" x="0" y="0" version="1.1" viewBox="0 0 120 120" xml:space="preserve"><style>.st2{fill:#ccc}.st3{fill:none;stroke:#455a64;stroke-width:2}.st7{fill:#fbb54c;stroke:#212121;stroke-width:1.5;stroke-linecap:round;stroke-linejoin:round}</style><g id="Graph_Database"><g id="back_x5F_circle_75_"><circle cx="60" cy="60" r="50" fill="#f0f0f0"/><circle cx="60" cy="60" r="50" fill="none" stroke="#777" stroke-dasharray=".9971,3.9883" stroke-linecap="square" stroke-width="2"/></g><g id="pic_67_"><circle cx="49" cy="30" r="11" class="st2"/><circle cx="30" cy="49" r="11" class="st2"/><circle cx="37" cy="83" r="11" class="st2"/><circle cx="60" cy="60" r="11" class="st2"/><circle cx="83" cy="37" r="11" class="st2"/><circle cx="90" cy="71" r="11" class="st2"/><circle cx="71" cy="90" r="11" class="st2"/><path d="M49 30v19M71 71v19M49 49H30M90 71H71M83 37L37 83M49 49l22 22" class="st3"/><path fill="#9575cd" stroke="#212121" stroke-linecap="round" stroke-linejoin="round" stroke-width="1.5" d="M52 60c0-4.4 3.6-8 8-8s8 3.6 8 8-3.6 8-8 8-8-3.6-8-8z"/><path fill="#29b6f6" stroke="#212121" stroke-linecap="round" stroke-linejoin="round" stroke-width="1.5" d="M29 83c0-4.4 3.6-8 8-8s8 3.6 8 8-3.6 8-8 8-8-3.6-8-8z"/><path fill="#26c6da" stroke="#212121" stroke-linecap="round" stroke-linejoin="round" stroke-width="1.5" d="M75 37c0-4.4 3.6-8 8-8s8 3.6 8 8-3.6 8-8 8-8-3.6-8-8z"/><path d="M22 49c0-4.4 3.6-8 8-8s8 3.6 8 8-3.6 8-8 8-8-3.6-8-8z" class="st7"/><path fill="#66bb6a" stroke="#212121" stroke-linecap="round" stroke-linejoin="round" stroke-width="1.5" d="M41 30c0-4.4 3.6-8 8-8s8 3.6 8 8-3.6 8-8 8-8-3.6-8-8z"/><path fill="#9ccc65" stroke="#212121" stroke-linecap="round" stroke-linejoin="round" stroke-width="1.5" d="M63 90c0-4.4 3.6-8 8-8s8 3.6 8 8-3.6 8-8 8-8-3.6-8-8z"/><path d="M82 71c0-4.4 3.6-8 8-8s8 3.6 8 8-3.6 8-8 8-8-3.6-8-8z" class="st7"/></g></g></svg>